<svg xmlns="http://www.w3.org/2000/svg" xmlns:xlink="http://www.w3.org/1999/xlink" width="500" zoomAndPan="magnify" viewBox="0 0 375 374.999991" height="500" preserveAspectRatio="xMidYMid meet" version="1.0"><defs><g/><clipPath id="a81005f0b6"><path d="M 77 251 L 93 251 L 93 266.164062 L 77 266.164062 Z M 77 251 " clip-rule="nonzero"/></clipPath><clipPath id="3b5a5844c5"><path d="M 135 209 L 150.441406 209 L 150.441406 225 L 135 225 Z M 135 209 " clip-rule="nonzero"/></clipPath><clipPath id="99eebcaaf5"><rect x="0" width="210" y="0" height="58"/></clipPath><clipPath id="b217f6ba29"><rect x="0" width="201" y="0" height="56"/></clipPath></defs><path fill="#d8d8da" d="M 98.832031 117.757812 C 93.683594 115.859375 87.90625 118.359375 85.796875 123.472656 C 81.601562 133.585938 74.269531 136.625 64.148438 132.4375 C 58.910156 130.265625 52.894531 132.757812 50.722656 137.992188 L 50.710938 138.019531 C 48.558594 143.257812 51.046875 149.253906 56.285156 151.417969 L 56.304688 151.429688 C 61.542969 153.582031 67.539062 151.09375 69.710938 145.863281 C 73.898438 135.742188 81.238281 132.703125 91.351562 136.898438 C 96.570312 139.054688 102.621094 136.554688 104.777344 131.335938 C 105.828125 128.800781 105.808594 125.972656 104.769531 123.4375 C 103.847656 121.257812 102.199219 119.394531 99.960938 118.253906 L 98.832031 117.757812 " fill-opacity="1" fill-rule="evenodd"/><path fill="#d8d8da" d="M 63.644531 119.992188 C 65.214844 123.78125 69.5625 125.574219 73.351562 124.011719 C 77.140625 122.441406 78.941406 118.09375 77.367188 114.304688 C 75.796875 110.515625 71.453125 108.714844 67.664062 110.285156 C 63.871094 111.859375 62.078125 116.203125 63.644531 119.992188 " fill-opacity="1" fill-rule="evenodd"/><path fill="#d6b77a" d="M 27.507812 134.59375 C 23.296875 138.101562 22.570312 144.34375 25.9375 148.742188 C 32.605469 157.425781 31.574219 165.296875 22.882812 171.964844 C 18.375 175.417969 17.527344 181.875 20.980469 186.371094 L 21 186.386719 C 24.453125 190.875 30.890625 191.722656 35.386719 188.269531 L 35.40625 188.25 C 39.890625 184.796875 40.742188 178.359375 37.285156 173.863281 C 30.617188 165.171875 31.660156 157.300781 40.34375 150.632812 C 44.820312 147.199219 45.679688 140.707031 42.242188 136.226562 C 40.574219 134.054688 38.109375 132.652344 35.398438 132.296875 C 33.054688 131.996094 30.609375 132.492188 28.507812 133.859375 L 27.507812 134.59375 " fill-opacity="1" fill-rule="evenodd"/><path fill="#d6b77a" d="M 11.847656 166.179688 C 15.914062 166.71875 19.648438 163.855469 20.1875 159.785156 C 20.71875 155.722656 17.855469 151.984375 13.792969 151.453125 C 9.71875 150.917969 5.992188 153.777344 5.453125 157.851562 C 4.925781 161.914062 7.785156 165.640625 11.847656 166.179688 " fill-opacity="1" fill-rule="evenodd"/><path fill="#c4bcb3" d="M 6.425781 204.769531 C 7.363281 210.183594 12.40625 213.925781 17.890625 213.210938 C 28.753906 211.78125 35.050781 216.613281 36.484375 227.46875 C 37.226562 233.09375 42.382812 237.058594 48.007812 236.316406 L 48.027344 236.308594 C 53.644531 235.558594 57.59375 230.410156 56.851562 224.792969 L 56.851562 224.765625 C 56.101562 219.15625 50.941406 215.199219 45.324219 215.941406 C 34.46875 217.371094 28.171875 212.539062 26.742188 201.675781 C 26 196.085938 20.804688 192.101562 15.214844 192.835938 C 12.492188 193.199219 10.046875 194.621094 8.378906 196.792969 C 6.945312 198.671875 6.160156 201.039062 6.292969 203.550781 L 6.425781 204.769531 " fill-opacity="1" fill-rule="evenodd"/><path fill="#c4bcb3" d="M 25.953125 234.128906 C 28.453125 230.878906 27.835938 226.214844 24.585938 223.714844 C 21.328125 221.222656 16.671875 221.832031 14.171875 225.082031 C 11.671875 228.34375 12.289062 233.007812 15.542969 235.496094 C 18.792969 237.996094 23.457031 237.386719 25.953125 234.128906 " fill-opacity="1" fill-rule="evenodd"/><path fill="#c4bcb3" d="M 56.664062 258.117188 C 61.816406 260.015625 67.589844 257.523438 69.703125 252.410156 C 73.898438 242.289062 81.230469 239.25 91.351562 243.445312 C 96.589844 245.617188 102.605469 243.128906 104.777344 237.882812 L 104.785156 237.863281 C 106.941406 232.625 104.449219 226.628906 99.210938 224.457031 L 99.195312 224.445312 C 93.957031 222.292969 87.960938 224.78125 85.785156 230.019531 C 81.601562 240.132812 74.261719 243.171875 64.148438 238.984375 C 58.925781 236.820312 52.875 239.332031 50.722656 244.550781 C 49.671875 247.085938 49.6875 249.910156 50.730469 252.445312 C 51.648438 254.621094 53.300781 256.492188 55.535156 257.632812 L 56.664062 258.117188 " fill-opacity="1" fill-rule="evenodd"/><g clip-path="url(#a81005f0b6)"><path fill="#c4bcb3" d="M 91.855469 255.890625 C 90.28125 252.101562 85.9375 250.300781 82.148438 251.871094 C 78.359375 253.445312 76.554688 257.789062 78.128906 261.578125 C 79.699219 265.359375 84.046875 267.160156 87.835938 265.589844 C 91.625 264.027344 93.417969 259.679688 91.855469 255.890625 " fill-opacity="1" fill-rule="evenodd"/></g><path fill="#cfe7e3" d="M 127.988281 241.289062 C 132.203125 237.777344 132.925781 231.53125 129.5625 227.140625 C 122.890625 218.449219 123.925781 210.582031 132.617188 203.910156 C 137.121094 200.457031 137.96875 194.011719 134.515625 189.503906 L 134.5 189.488281 C 131.042969 185 124.597656 184.160156 120.109375 187.617188 L 120.09375 187.625 C 115.605469 191.085938 114.757812 197.527344 118.210938 202.019531 C 124.878906 210.703125 123.835938 218.582031 115.15625 225.242188 C 110.675781 228.679688 109.820312 235.171875 113.253906 239.648438 C 114.925781 241.828125 117.390625 243.234375 120.101562 243.585938 C 122.441406 243.886719 124.886719 243.382812 126.992188 242.023438 L 127.988281 241.289062 " fill-opacity="1" fill-rule="evenodd"/><g clip-path="url(#3b5a5844c5)"><path fill="#cfe7e3" d="M 143.648438 209.695312 C 139.585938 209.167969 135.847656 212.027344 135.320312 216.089844 C 134.78125 220.164062 137.640625 223.890625 141.707031 224.429688 C 145.777344 224.960938 149.503906 222.097656 150.042969 218.035156 C 150.574219 213.972656 147.710938 210.234375 143.648438 209.695312 " fill-opacity="1" fill-rule="evenodd"/></g><path fill="#d8d8da" d="M 149.0625 171.105469 C 148.136719 165.703125 143.09375 161.949219 137.597656 162.671875 C 126.742188 164.101562 120.445312 159.273438 119.015625 148.40625 C 118.273438 142.78125 113.113281 138.824219 107.488281 139.566406 L 107.46875 139.566406 C 101.851562 140.316406 97.90625 145.476562 98.648438 151.09375 L 98.648438 151.121094 C 99.398438 156.726562 104.554688 160.675781 110.171875 159.941406 C 121.027344 158.511719 127.324219 163.34375 128.757812 174.199219 C 129.5 179.796875 134.683594 183.78125 140.285156 183.050781 C 143.003906 182.6875 145.449219 181.257812 147.121094 179.082031 C 148.550781 177.210938 149.335938 174.835938 149.203125 172.335938 L 149.0625 171.105469 " fill-opacity="1" fill-rule="evenodd"/><path fill="#d8d8da" d="M 129.542969 141.746094 C 127.042969 145.007812 127.660156 149.671875 130.914062 152.160156 C 134.171875 154.660156 138.835938 154.042969 141.324219 150.792969 C 143.824219 147.542969 143.207031 142.878906 139.957031 140.378906 C 136.707031 137.886719 132.042969 138.496094 129.542969 141.746094 " fill-opacity="1" fill-rule="evenodd"/><g transform="matrix(1, 0, 0, 1, 155, 130)"><g clip-path="url(#99eebcaaf5)"><g fill="#d8d8da" fill-opacity="1"><g transform="translate(1.427782, 45.033475)"><g><path d="M 42.703125 0 L 42.703125 -25.03125 L 41.140625 -22.28125 L 27.875 0 L 24.984375 0 L 11.875 -22.28125 L 10.3125 -25.03125 L 10.3125 0 L 4.515625 0 L 4.515625 -31.640625 L 12.734375 -31.640625 L 25.21875 -9.921875 L 26.6875 -7.265625 L 28.171875 -9.921875 L 40.515625 -31.640625 L 48.640625 -31.640625 L 48.640625 0 Z M 42.703125 0 "/></g></g></g><g fill="#d8d8da" fill-opacity="1"><g transform="translate(54.559467, 45.033475)"><g><path d="M 4.515625 0 L 4.515625 -31.640625 L 33.25 -31.640625 L 33.25 -26.6875 L 10.453125 -26.6875 L 10.453125 -18.578125 L 27.984375 -18.578125 L 27.984375 -13.78125 L 10.453125 -13.78125 L 10.453125 -4.9375 L 33.25 -4.9375 L 33.25 0 Z M 4.515625 0 "/></g></g></g><g fill="#d8d8da" fill-opacity="1"><g transform="translate(90.645338, 45.033475)"><g><path d="M 22.375 -26.6875 L 22.375 0 L 16.4375 0 L 16.4375 -26.6875 L 2.609375 -26.6875 L 2.609375 -31.640625 L 36.1875 -31.640625 L 36.1875 -26.6875 Z M 22.375 -26.6875 "/></g></g></g><g fill="#d8d8da" fill-opacity="1"><g transform="translate(129.437651, 45.033475)"><g><path d="M 33.71875 0 L 29.546875 -7.84375 L 10.96875 -7.84375 L 6.9375 0 L 0.671875 0 L 17.765625 -31.640625 L 22.703125 -31.640625 L 40.09375 0 Z M 20.09375 -25.453125 L 13.203125 -12.15625 L 27.21875 -12.15625 Z M 20.09375 -25.453125 "/></g></g></g><g fill="#d8d8da" fill-opacity="1"><g transform="translate(170.129205, 45.033475)"><g><path d="M 36.046875 -8.546875 C 36.046875 -7.253906 35.769531 -6.082031 35.21875 -5.03125 C 34.664062 -3.988281 33.859375 -3.09375 32.796875 -2.34375 C 31.734375 -1.601562 30.425781 -1.023438 28.875 -0.609375 C 27.320312 -0.203125 25.566406 0 23.609375 0 L 4.515625 0 L 4.515625 -31.640625 L 23.46875 -31.640625 C 27.425781 -31.640625 30.425781 -30.882812 32.46875 -29.375 C 34.507812 -27.875 35.53125 -25.890625 35.53125 -23.421875 L 35.53125 -22.984375 C 35.53125 -22.160156 35.394531 -21.359375 35.125 -20.578125 C 34.851562 -19.804688 34.441406 -19.101562 33.890625 -18.46875 C 33.335938 -17.84375 32.648438 -17.289062 31.828125 -16.8125 C 31.003906 -16.34375 30.035156 -15.992188 28.921875 -15.765625 C 30.191406 -15.578125 31.273438 -15.238281 32.171875 -14.75 C 33.078125 -14.257812 33.816406 -13.695312 34.390625 -13.0625 C 34.960938 -12.425781 35.378906 -11.75 35.640625 -11.03125 C 35.910156 -10.320312 36.046875 -9.640625 36.046875 -8.984375 Z M 29.828125 -22.328125 C 29.828125 -23.523438 29.375 -24.550781 28.46875 -25.40625 C 27.570312 -26.257812 26.03125 -26.6875 23.84375 -26.6875 L 10.453125 -26.6875 L 10.453125 -17.8125 L 23.5625 -17.8125 C 25.75 -17.8125 27.335938 -18.242188 28.328125 -19.109375 C 29.328125 -19.984375 29.828125 -21.007812 29.828125 -22.1875 Z M 29.828125 -9.3125 C 29.828125 -9.914062 29.707031 -10.476562 29.46875 -11 C 29.238281 -11.519531 28.867188 -11.976562 28.359375 -12.375 C 27.847656 -12.769531 27.195312 -13.085938 26.40625 -13.328125 C 25.613281 -13.566406 24.664062 -13.6875 23.5625 -13.6875 L 10.453125 -13.6875 L 10.453125 -4.75 L 23.84375 -4.75 C 24.914062 -4.75 25.832031 -4.867188 26.59375 -5.109375 C 27.351562 -5.347656 27.972656 -5.664062 28.453125 -6.0625 C 28.929688 -6.457031 29.28125 -6.921875 29.5 -7.453125 C 29.71875 -7.992188 29.828125 -8.566406 29.828125 -9.171875 Z M 29.828125 -9.3125 "/></g></g></g></g></g><g transform="matrix(1, 0, 0, 1, 160, 183)"><g clip-path="url(#b217f6ba29)"><g fill="#d8d8da" fill-opacity="1"><g transform="translate(1.174014, 21.866511)"><g><path d="M 7.78125 0.203125 C 6.539062 0.203125 5.441406 -0.078125 4.484375 -0.640625 C 3.523438 -1.203125 2.769531 -2.023438 2.21875 -3.109375 C 1.675781 -4.203125 1.40625 -5.507812 1.40625 -7.03125 C 1.40625 -8.550781 1.675781 -9.851562 2.21875 -10.9375 C 2.769531 -12.03125 3.523438 -12.859375 4.484375 -13.421875 C 5.441406 -13.984375 6.539062 -14.265625 7.78125 -14.265625 C 9.09375 -14.265625 10.179688 -14.015625 11.046875 -13.515625 C 11.921875 -13.023438 12.550781 -12.28125 12.9375 -11.28125 L 11.875 -10.578125 L 11.640625 -10.578125 C 11.253906 -11.378906 10.753906 -11.945312 10.140625 -12.28125 C 9.523438 -12.613281 8.738281 -12.78125 7.78125 -12.78125 C 6.894531 -12.78125 6.109375 -12.582031 5.421875 -12.1875 C 4.734375 -11.800781 4.1875 -11.175781 3.78125 -10.3125 C 3.375 -9.457031 3.171875 -8.363281 3.171875 -7.03125 C 3.171875 -5.695312 3.375 -4.601562 3.78125 -3.75 C 4.1875 -2.894531 4.734375 -2.269531 5.421875 -1.875 C 6.109375 -1.488281 6.894531 -1.296875 7.78125 -1.296875 C 8.789062 -1.296875 9.617188 -1.523438 10.265625 -1.984375 C 10.921875 -2.441406 11.40625 -3.179688 11.71875 -4.203125 L 11.953125 -4.203125 L 13.0625 -3.65625 C 12.726562 -2.414062 12.109375 -1.460938 11.203125 -0.796875 C 10.304688 -0.128906 9.164062 0.203125 7.78125 0.203125 Z M 7.78125 0.203125 "/></g></g></g><g fill="#d8d8da" fill-opacity="1"><g transform="translate(14.964992, 21.866511)"><g><path d="M 3.78125 0 L 2.125 0 L 2.125 -14.0625 L 3.78125 -14.0625 Z M 3.78125 0 "/></g></g></g><g fill="#d8d8da" fill-opacity="1"><g transform="translate(20.879542, 21.866511)"><g><path d="M 3.78125 -6.625 L 3.78125 -1.359375 L 10.953125 -1.359375 L 10.953125 0 L 2.125 0 L 2.125 -14.0625 L 10.796875 -14.0625 L 10.796875 -12.703125 L 3.78125 -12.703125 L 3.78125 -8 L 9.96875 -8 L 9.96875 -6.625 Z M 3.78125 -6.625 "/></g></g></g><g fill="#d8d8da" fill-opacity="1"><g transform="translate(32.756719, 21.866511)"><g><path d="M 3.75 0 L 2.125 0 L 2.125 -14.0625 L 4.15625 -14.0625 L 11.015625 -3.3125 L 11.25 -3.359375 L 11.25 -14.0625 L 12.859375 -14.0625 L 12.859375 0 L 11.125 0 L 3.984375 -11.5 L 3.75 -11.453125 Z M 3.75 0 "/></g></g></g><g fill="#d8d8da" fill-opacity="1"><g transform="translate(47.749849, 21.866511)"><g><path d="M 7.78125 0.203125 C 6.539062 0.203125 5.441406 -0.078125 4.484375 -0.640625 C 3.523438 -1.203125 2.769531 -2.023438 2.21875 -3.109375 C 1.675781 -4.203125 1.40625 -5.507812 1.40625 -7.03125 C 1.40625 -8.550781 1.675781 -9.851562 2.21875 -10.9375 C 2.769531 -12.03125 3.523438 -12.859375 4.484375 -13.421875 C 5.441406 -13.984375 6.539062 -14.265625 7.78125 -14.265625 C 9.09375 -14.265625 10.179688 -14.015625 11.046875 -13.515625 C 11.921875 -13.023438 12.550781 -12.28125 12.9375 -11.28125 L 11.875 -10.578125 L 11.640625 -10.578125 C 11.253906 -11.378906 10.753906 -11.945312 10.140625 -12.28125 C 9.523438 -12.613281 8.738281 -12.78125 7.78125 -12.78125 C 6.894531 -12.78125 6.109375 -12.582031 5.421875 -12.1875 C 4.734375 -11.800781 4.1875 -11.175781 3.78125 -10.3125 C 3.375 -9.457031 3.171875 -8.363281 3.171875 -7.03125 C 3.171875 -5.695312 3.375 -4.601562 3.78125 -3.75 C 4.1875 -2.894531 4.734375 -2.269531 5.421875 -1.875 C 6.109375 -1.488281 6.894531 -1.296875 7.78125 -1.296875 C 8.789062 -1.296875 9.617188 -1.523438 10.265625 -1.984375 C 10.921875 -2.441406 11.40625 -3.179688 11.71875 -4.203125 L 11.953125 -4.203125 L 13.0625 -3.65625 C 12.726562 -2.414062 12.109375 -1.460938 11.203125 -0.796875 C 10.304688 -0.128906 9.164062 0.203125 7.78125 0.203125 Z M 7.78125 0.203125 "/></g></g></g><g fill="#d8d8da" fill-opacity="1"><g transform="translate(61.540827, 21.866511)"><g><path d="M 3.78125 0 L 2.125 0 L 2.125 -14.0625 L 3.78125 -14.0625 Z M 3.78125 0 "/></g></g></g><g fill="#d8d8da" fill-opacity="1"><g transform="translate(67.455378, 21.866511)"><g><path d="M 12.65625 0 L 10.890625 0 L 9.59375 -3.859375 L 3.59375 -3.859375 L 2.296875 0 L 0.5625 0 L 5.46875 -14.0625 L 7.75 -14.0625 Z M 6.46875 -12.359375 L 4.0625 -5.25 L 9.125 -5.25 L 6.71875 -12.359375 Z M 6.46875 -12.359375 "/></g></g></g><g fill="#d8d8da" fill-opacity="1"><g transform="translate(80.669327, 21.866511)"><g><path d="M 0.609375 2.9375 C 1.160156 2.570312 1.628906 2.144531 2.015625 1.65625 C 2.398438 1.175781 2.597656 0.648438 2.609375 0.078125 C 2.234375 0.078125 1.9375 -0.0195312 1.71875 -0.21875 C 1.507812 -0.425781 1.40625 -0.703125 1.40625 -1.046875 C 1.40625 -1.378906 1.507812 -1.648438 1.71875 -1.859375 C 1.925781 -2.078125 2.203125 -2.1875 2.546875 -2.1875 C 2.921875 -2.1875 3.222656 -2.054688 3.453125 -1.796875 C 3.691406 -1.535156 3.8125 -1.125 3.8125 -0.5625 C 3.8125 0.4375 3.597656 1.273438 3.171875 1.953125 C 2.742188 2.640625 2.109375 3.269531 1.265625 3.84375 Z M 0.609375 2.9375 "/></g></g></g><g fill="#d8d8da" fill-opacity="1"><g transform="translate(85.891444, 21.866511)"><g/></g></g><g fill="#d8d8da" fill-opacity="1"><g transform="translate(90.719248, 21.866511)"><g><path d="M 2.125 0 L 2.125 -14.0625 L 7.453125 -14.0625 C 8.316406 -14.0625 9.050781 -13.921875 9.65625 -13.640625 C 10.257812 -13.367188 10.710938 -12.976562 11.015625 -12.46875 C 11.328125 -11.957031 11.484375 -11.351562 11.484375 -10.65625 C 11.484375 -10.039062 11.316406 -9.484375 10.984375 -8.984375 C 10.648438 -8.492188 10.175781 -8.113281 9.5625 -7.84375 L 9.5625 -7.640625 C 10.5 -7.410156 11.207031 -6.988281 11.6875 -6.375 C 12.175781 -5.769531 12.421875 -5.003906 12.421875 -4.078125 C 12.421875 -2.765625 12.035156 -1.753906 11.265625 -1.046875 C 10.503906 -0.347656 9.367188 0 7.859375 0 Z M 7.375 -8.15625 C 8.15625 -8.15625 8.757812 -8.359375 9.1875 -8.765625 C 9.613281 -9.171875 9.828125 -9.734375 9.828125 -10.453125 C 9.828125 -11.203125 9.617188 -11.765625 9.203125 -12.140625 C 8.796875 -12.515625 8.1875 -12.703125 7.375 -12.703125 L 3.78125 -12.703125 L 3.78125 -8.15625 Z M 7.734375 -1.359375 C 9.734375 -1.359375 10.734375 -2.265625 10.734375 -4.078125 C 10.734375 -5.890625 9.734375 -6.796875 7.734375 -6.796875 L 3.78125 -6.796875 L 3.78125 -1.359375 Z M 7.734375 -1.359375 "/></g></g></g><g fill="#d8d8da" fill-opacity="1"><g transform="translate(104.250572, 21.866511)"><g><path d="M 12.65625 0 L 10.890625 0 L 9.59375 -3.859375 L 3.59375 -3.859375 L 2.296875 0 L 0.5625 0 L 5.46875 -14.0625 L 7.75 -14.0625 Z M 6.46875 -12.359375 L 4.0625 -5.25 L 9.125 -5.25 L 6.71875 -12.359375 Z M 6.46875 -12.359375 "/></g></g></g><g fill="#d8d8da" fill-opacity="1"><g transform="translate(117.464522, 21.866511)"><g><path d="M 3.78125 -14.0625 L 3.78125 -1.359375 L 10.546875 -1.359375 L 10.546875 0 L 2.125 0 L 2.125 -14.0625 Z M 3.78125 -14.0625 "/></g></g></g><g fill="#d8d8da" fill-opacity="1"><g transform="translate(128.610796, 21.866511)"><g><path d="M 12.65625 0 L 10.890625 0 L 9.59375 -3.859375 L 3.59375 -3.859375 L 2.296875 0 L 0.5625 0 L 5.46875 -14.0625 L 7.75 -14.0625 Z M 6.46875 -12.359375 L 4.0625 -5.25 L 9.125 -5.25 L 6.71875 -12.359375 Z M 6.46875 -12.359375 "/></g></g></g><g fill="#d8d8da" fill-opacity="1"><g transform="translate(141.824746, 21.866511)"><g><path d="M 3.75 0 L 2.125 0 L 2.125 -14.0625 L 4.15625 -14.0625 L 11.015625 -3.3125 L 11.25 -3.359375 L 11.25 -14.0625 L 12.859375 -14.0625 L 12.859375 0 L 11.125 0 L 3.984375 -11.5 L 3.75 -11.453125 Z M 3.75 0 "/></g></g></g><g fill="#d8d8da" fill-opacity="1"><g transform="translate(156.817876, 21.866511)"><g><path d="M 7.78125 0.203125 C 6.539062 0.203125 5.441406 -0.078125 4.484375 -0.640625 C 3.523438 -1.203125 2.769531 -2.023438 2.21875 -3.109375 C 1.675781 -4.203125 1.40625 -5.507812 1.40625 -7.03125 C 1.40625 -8.550781 1.675781 -9.851562 2.21875 -10.9375 C 2.769531 -12.03125 3.523438 -12.859375 4.484375 -13.421875 C 5.441406 -13.984375 6.539062 -14.265625 7.78125 -14.265625 C 9.09375 -14.265625 10.179688 -14.015625 11.046875 -13.515625 C 11.921875 -13.023438 12.550781 -12.28125 12.9375 -11.28125 L 11.875 -10.578125 L 11.640625 -10.578125 C 11.253906 -11.378906 10.753906 -11.945312 10.140625 -12.28125 C 9.523438 -12.613281 8.738281 -12.78125 7.78125 -12.78125 C 6.894531 -12.78125 6.109375 -12.582031 5.421875 -12.1875 C 4.734375 -11.800781 4.1875 -11.175781 3.78125 -10.3125 C 3.375 -9.457031 3.171875 -8.363281 3.171875 -7.03125 C 3.171875 -5.695312 3.375 -4.601562 3.78125 -3.75 C 4.1875 -2.894531 4.734375 -2.269531 5.421875 -1.875 C 6.109375 -1.488281 6.894531 -1.296875 7.78125 -1.296875 C 8.789062 -1.296875 9.617188 -1.523438 10.265625 -1.984375 C 10.921875 -2.441406 11.40625 -3.179688 11.71875 -4.203125 L 11.953125 -4.203125 L 13.0625 -3.65625 C 12.726562 -2.414062 12.109375 -1.460938 11.203125 -0.796875 C 10.304688 -0.128906 9.164062 0.203125 7.78125 0.203125 Z M 7.78125 0.203125 "/></g></g></g><g fill="#d8d8da" fill-opacity="1"><g transform="translate(170.608854, 21.866511)"><g><path d="M 3.78125 -6.625 L 3.78125 -1.359375 L 10.953125 -1.359375 L 10.953125 0 L 2.125 0 L 2.125 -14.0625 L 10.796875 -14.0625 L 10.796875 -12.703125 L 3.78125 -12.703125 L 3.78125 -8 L 9.96875 -8 L 9.96875 -6.625 Z M 3.78125 -6.625 "/></g></g></g><g fill="#d8d8da" fill-opacity="1"><g transform="translate(182.486031, 21.866511)"><g/></g></g><g fill="#d8d8da" fill-opacity="1"><g transform="translate(187.313835, 21.866511)"><g><path d="M 6.875 0 L 5.21875 0 L 5.21875 -5.515625 L 0.359375 -14.0625 L 2.171875 -14.0625 L 5.96875 -7.46875 L 6.203125 -7.46875 L 9.96875 -14.0625 L 11.734375 -14.0625 L 6.875 -5.515625 Z M 6.875 0 "/></g></g></g><g fill="#d8d8da" fill-opacity="1"><g transform="translate(7.553565, 48.921955)"><g><path d="M 10.984375 -14.0625 L 10.984375 -12.65625 L 6.578125 -12.65625 L 6.578125 0 L 4.921875 0 L 4.921875 -12.65625 L 0.515625 -12.65625 L 0.515625 -14.0625 Z M 10.984375 -14.0625 "/></g></g></g><g fill="#d8d8da" fill-opacity="1"><g transform="translate(19.036429, 48.921955)"><g><path d="M 2.125 0 L 2.125 -14.0625 L 7.234375 -14.0625 C 8.179688 -14.0625 8.972656 -13.90625 9.609375 -13.59375 C 10.253906 -13.28125 10.734375 -12.835938 11.046875 -12.265625 C 11.367188 -11.703125 11.53125 -11.035156 11.53125 -10.265625 C 11.53125 -9.390625 11.3125 -8.664062 10.875 -8.09375 C 10.445312 -7.53125 9.769531 -7.109375 8.84375 -6.828125 L 8.84375 -6.625 C 9.300781 -6.445312 9.671875 -6.164062 9.953125 -5.78125 C 10.242188 -5.394531 10.507812 -4.820312 10.75 -4.0625 L 12.0625 0 L 10.359375 0 L 8.953125 -4.296875 C 8.785156 -4.804688 8.59375 -5.203125 8.375 -5.484375 C 8.15625 -5.773438 7.878906 -5.984375 7.546875 -6.109375 C 7.210938 -6.242188 6.785156 -6.3125 6.265625 -6.3125 L 3.78125 -6.3125 L 3.78125 0 Z M 7.203125 -7.71875 C 8.078125 -7.71875 8.726562 -7.921875 9.15625 -8.328125 C 9.582031 -8.734375 9.796875 -9.351562 9.796875 -10.1875 C 9.796875 -11.019531 9.582031 -11.640625 9.15625 -12.046875 C 8.726562 -12.453125 8.078125 -12.65625 7.203125 -12.65625 L 3.78125 -12.65625 L 3.78125 -7.71875 Z M 7.203125 -7.71875 "/></g></g></g><g fill="#d8d8da" fill-opacity="1"><g transform="translate(32.058036, 48.921955)"><g><path d="M 12.65625 0 L 10.890625 0 L 9.59375 -3.859375 L 3.59375 -3.859375 L 2.296875 0 L 0.5625 0 L 5.46875 -14.0625 L 7.75 -14.0625 Z M 6.46875 -12.359375 L 4.0625 -5.25 L 9.125 -5.25 L 6.71875 -12.359375 Z M 6.46875 -12.359375 "/></g></g></g><g fill="#d8d8da" fill-opacity="1"><g transform="translate(45.271986, 48.921955)"><g><path d="M 3.75 0 L 2.125 0 L 2.125 -14.0625 L 4.15625 -14.0625 L 11.015625 -3.3125 L 11.25 -3.359375 L 11.25 -14.0625 L 12.859375 -14.0625 L 12.859375 0 L 11.125 0 L 3.984375 -11.5 L 3.75 -11.453125 Z M 3.75 0 "/></g></g></g><g fill="#d8d8da" fill-opacity="1"><g transform="translate(60.265116, 48.921955)"><g><path d="M 6.140625 0.203125 C 5.253906 0.203125 4.460938 0.0820312 3.765625 -0.15625 C 3.066406 -0.394531 2.484375 -0.707031 2.015625 -1.09375 C 1.546875 -1.488281 1.195312 -1.921875 0.96875 -2.390625 L 1.859375 -3.5 L 2.109375 -3.5 C 2.984375 -2.03125 4.328125 -1.296875 6.140625 -1.296875 C 7.203125 -1.296875 7.988281 -1.515625 8.5 -1.953125 C 9.019531 -2.390625 9.28125 -3.003906 9.28125 -3.796875 C 9.28125 -4.265625 9.195312 -4.65625 9.03125 -4.96875 C 8.863281 -5.289062 8.582031 -5.566406 8.1875 -5.796875 C 7.789062 -6.023438 7.257812 -6.222656 6.59375 -6.390625 L 4.9375 -6.796875 C 3.71875 -7.085938 2.816406 -7.554688 2.234375 -8.203125 C 1.648438 -8.847656 1.359375 -9.664062 1.359375 -10.65625 C 1.359375 -11.351562 1.535156 -11.972656 1.890625 -12.515625 C 2.253906 -13.066406 2.78125 -13.492188 3.46875 -13.796875 C 4.164062 -14.109375 5 -14.265625 5.96875 -14.265625 C 7.019531 -14.265625 7.910156 -14.113281 8.640625 -13.8125 C 9.367188 -13.519531 9.953125 -13.078125 10.390625 -12.484375 L 9.578125 -11.390625 L 9.34375 -11.390625 C 8.9375 -11.878906 8.457031 -12.238281 7.90625 -12.46875 C 7.351562 -12.707031 6.707031 -12.828125 5.96875 -12.828125 C 4.988281 -12.828125 4.25 -12.632812 3.75 -12.25 C 3.257812 -11.875 3.015625 -11.351562 3.015625 -10.6875 C 3.015625 -10.050781 3.195312 -9.546875 3.5625 -9.171875 C 3.925781 -8.796875 4.539062 -8.503906 5.40625 -8.296875 L 7.09375 -7.90625 C 8.457031 -7.582031 9.445312 -7.085938 10.0625 -6.421875 C 10.675781 -5.753906 10.984375 -4.90625 10.984375 -3.875 C 10.984375 -3.082031 10.800781 -2.378906 10.4375 -1.765625 C 10.082031 -1.148438 9.539062 -0.664062 8.8125 -0.3125 C 8.09375 0.03125 7.203125 0.203125 6.140625 0.203125 Z M 6.140625 0.203125 "/></g></g></g><g fill="#d8d8da" fill-opacity="1"><g transform="translate(72.315401, 48.921955)"><g><path d="M 10.390625 -14.0625 L 10.390625 -12.703125 L 3.78125 -12.703125 L 3.78125 -7.578125 L 9.71875 -7.578125 L 9.71875 -6.203125 L 3.78125 -6.203125 L 3.78125 0 L 2.125 0 L 2.125 -14.0625 Z M 10.390625 -14.0625 "/></g></g></g><g fill="#d8d8da" fill-opacity="1"><g transform="translate(83.461676, 48.921955)"><g><path d="M 7.71875 0.203125 C 6.5 0.203125 5.414062 -0.0546875 4.46875 -0.578125 C 3.519531 -1.109375 2.769531 -1.914062 2.21875 -3 C 1.675781 -4.082031 1.40625 -5.425781 1.40625 -7.03125 C 1.40625 -8.644531 1.675781 -9.988281 2.21875 -11.0625 C 2.769531 -12.144531 3.519531 -12.945312 4.46875 -13.46875 C 5.414062 -14 6.5 -14.265625 7.71875 -14.265625 C 8.9375 -14.265625 10.019531 -14 10.96875 -13.46875 C 11.914062 -12.945312 12.660156 -12.144531 13.203125 -11.0625 C 13.753906 -9.988281 14.03125 -8.644531 14.03125 -7.03125 C 14.03125 -5.425781 13.753906 -4.082031 13.203125 -3 C 12.660156 -1.914062 11.914062 -1.109375 10.96875 -0.578125 C 10.019531 -0.0546875 8.9375 0.203125 7.71875 0.203125 Z M 7.71875 -1.328125 C 9.175781 -1.328125 10.296875 -1.78125 11.078125 -2.6875 C 11.859375 -3.601562 12.25 -5.050781 12.25 -7.03125 C 12.25 -9.007812 11.859375 -10.453125 11.078125 -11.359375 C 10.296875 -12.273438 9.175781 -12.734375 7.71875 -12.734375 C 4.6875 -12.734375 3.171875 -10.832031 3.171875 -7.03125 C 3.171875 -3.226562 4.6875 -1.328125 7.71875 -1.328125 Z M 7.71875 -1.328125 "/></g></g></g><g fill="#d8d8da" fill-opacity="1"><g transform="translate(98.887567, 48.921955)"><g><path d="M 2.125 0 L 2.125 -14.0625 L 7.234375 -14.0625 C 8.179688 -14.0625 8.972656 -13.90625 9.609375 -13.59375 C 10.253906 -13.28125 10.734375 -12.835938 11.046875 -12.265625 C 11.367188 -11.703125 11.53125 -11.035156 11.53125 -10.265625 C 11.53125 -9.390625 11.3125 -8.664062 10.875 -8.09375 C 10.445312 -7.53125 9.769531 -7.109375 8.84375 -6.828125 L 8.84375 -6.625 C 9.300781 -6.445312 9.671875 -6.164062 9.953125 -5.78125 C 10.242188 -5.394531 10.507812 -4.820312 10.75 -4.0625 L 12.0625 0 L 10.359375 0 L 8.953125 -4.296875 C 8.785156 -4.804688 8.59375 -5.203125 8.375 -5.484375 C 8.15625 -5.773438 7.878906 -5.984375 7.546875 -6.109375 C 7.210938 -6.242188 6.785156 -6.3125 6.265625 -6.3125 L 3.78125 -6.3125 L 3.78125 0 Z M 7.203125 -7.71875 C 8.078125 -7.71875 8.726562 -7.921875 9.15625 -8.328125 C 9.582031 -8.734375 9.796875 -9.351562 9.796875 -10.1875 C 9.796875 -11.019531 9.582031 -11.640625 9.15625 -12.046875 C 8.726562 -12.453125 8.078125 -12.65625 7.203125 -12.65625 L 3.78125 -12.65625 L 3.78125 -7.71875 Z M 7.203125 -7.71875 "/></g></g></g><g fill="#d8d8da" fill-opacity="1"><g transform="translate(111.909174, 48.921955)"><g><path d="M 3.65625 0 L 2.125 0 L 2.125 -14.0625 L 4.578125 -14.0625 L 8.84375 -2.15625 L 9.046875 -2.15625 L 13.3125 -14.0625 L 15.671875 -14.0625 L 15.671875 0 L 14.109375 0 L 14.109375 -11.484375 L 13.859375 -11.515625 L 9.703125 0 L 8.0625 0 L 3.890625 -11.515625 L 3.65625 -11.484375 Z M 3.65625 0 "/></g></g></g><g fill="#d8d8da" fill-opacity="1"><g transform="translate(129.710509, 48.921955)"><g><path d="M 12.65625 0 L 10.890625 0 L 9.59375 -3.859375 L 3.59375 -3.859375 L 2.296875 0 L 0.5625 0 L 5.46875 -14.0625 L 7.75 -14.0625 Z M 6.46875 -12.359375 L 4.0625 -5.25 L 9.125 -5.25 L 6.71875 -12.359375 Z M 6.46875 -12.359375 "/></g></g></g><g fill="#d8d8da" fill-opacity="1"><g transform="translate(142.924459, 48.921955)"><g><path d="M 7.78125 0.203125 C 6.539062 0.203125 5.441406 -0.078125 4.484375 -0.640625 C 3.523438 -1.203125 2.769531 -2.023438 2.21875 -3.109375 C 1.675781 -4.203125 1.40625 -5.507812 1.40625 -7.03125 C 1.40625 -8.550781 1.675781 -9.851562 2.21875 -10.9375 C 2.769531 -12.03125 3.523438 -12.859375 4.484375 -13.421875 C 5.441406 -13.984375 6.539062 -14.265625 7.78125 -14.265625 C 9.09375 -14.265625 10.179688 -14.015625 11.046875 -13.515625 C 11.921875 -13.023438 12.550781 -12.28125 12.9375 -11.28125 L 11.875 -10.578125 L 11.640625 -10.578125 C 11.253906 -11.378906 10.753906 -11.945312 10.140625 -12.28125 C 9.523438 -12.613281 8.738281 -12.78125 7.78125 -12.78125 C 6.894531 -12.78125 6.109375 -12.582031 5.421875 -12.1875 C 4.734375 -11.800781 4.1875 -11.175781 3.78125 -10.3125 C 3.375 -9.457031 3.171875 -8.363281 3.171875 -7.03125 C 3.171875 -5.695312 3.375 -4.601562 3.78125 -3.75 C 4.1875 -2.894531 4.734375 -2.269531 5.421875 -1.875 C 6.109375 -1.488281 6.894531 -1.296875 7.78125 -1.296875 C 8.789062 -1.296875 9.617188 -1.523438 10.265625 -1.984375 C 10.921875 -2.441406 11.40625 -3.179688 11.71875 -4.203125 L 11.953125 -4.203125 L 13.0625 -3.65625 C 12.726562 -2.414062 12.109375 -1.460938 11.203125 -0.796875 C 10.304688 -0.128906 9.164062 0.203125 7.78125 0.203125 Z M 7.78125 0.203125 "/></g></g></g><g fill="#d8d8da" fill-opacity="1"><g transform="translate(156.715437, 48.921955)"><g><path d="M 3.78125 0 L 2.125 0 L 2.125 -14.0625 L 3.78125 -14.0625 Z M 3.78125 0 "/></g></g></g><g fill="#d8d8da" fill-opacity="1"><g transform="translate(162.629987, 48.921955)"><g><path d="M 7.71875 0.203125 C 6.5 0.203125 5.414062 -0.0546875 4.46875 -0.578125 C 3.519531 -1.109375 2.769531 -1.914062 2.21875 -3 C 1.675781 -4.082031 1.40625 -5.425781 1.40625 -7.03125 C 1.40625 -8.644531 1.675781 -9.988281 2.21875 -11.0625 C 2.769531 -12.144531 3.519531 -12.945312 4.46875 -13.46875 C 5.414062 -14 6.5 -14.265625 7.71875 -14.265625 C 8.9375 -14.265625 10.019531 -14 10.96875 -13.46875 C 11.914062 -12.945312 12.660156 -12.144531 13.203125 -11.0625 C 13.753906 -9.988281 14.03125 -8.644531 14.03125 -7.03125 C 14.03125 -5.425781 13.753906 -4.082031 13.203125 -3 C 12.660156 -1.914062 11.914062 -1.109375 10.96875 -0.578125 C 10.019531 -0.0546875 8.9375 0.203125 7.71875 0.203125 Z M 7.71875 -1.328125 C 9.175781 -1.328125 10.296875 -1.78125 11.078125 -2.6875 C 11.859375 -3.601562 12.25 -5.050781 12.25 -7.03125 C 12.25 -9.007812 11.859375 -10.453125 11.078125 -11.359375 C 10.296875 -12.273438 9.175781 -12.734375 7.71875 -12.734375 C 4.6875 -12.734375 3.171875 -10.832031 3.171875 -7.03125 C 3.171875 -3.226562 4.6875 -1.328125 7.71875 -1.328125 Z M 8.296875 -15.078125 L 7.03125 -15.078125 L 7.03125 -15.28125 L 8.640625 -17.765625 L 10.65625 -17.765625 L 10.65625 -17.5625 Z M 8.296875 -15.078125 "/></g></g></g><g fill="#d8d8da" fill-opacity="1"><g transform="translate(178.055879, 48.921955)"><g><path d="M 3.75 0 L 2.125 0 L 2.125 -14.0625 L 4.15625 -14.0625 L 11.015625 -3.3125 L 11.25 -3.359375 L 11.25 -14.0625 L 12.859375 -14.0625 L 12.859375 0 L 11.125 0 L 3.984375 -11.5 L 3.75 -11.453125 Z M 3.75 0 "/></g></g></g></g></g></svg>